<svg width="253" height="253" viewBox="0 0 253 253" fill="none" xmlns="http://www.w3.org/2000/svg">
<circle cx="126.5" cy="126.5" r="126.5" fill="white"/>
<path d="M34.3984 130.281V122.43C38.9036 122.43 42.0286 121.531 43.7734 119.734C45.5182 117.937 46.3906 115.034 46.3906 111.023V102.391C46.3906 97.5729 47.0547 93.7187 48.3828 90.8281C49.737 87.9115 51.612 85.7109 54.0078 84.2266C56.4297 82.7422 59.2943 81.7526 62.6016 81.2578C65.9089 80.763 69.5286 80.5156 73.4609 80.5156V92.9375C70.388 92.9375 68.0443 93.3411 66.4297 94.1484C64.8411 94.9297 63.7604 96.1536 63.1875 97.8203C62.6146 99.4609 62.3281 101.544 62.3281 104.07V115.477C62.3281 117.456 61.9635 119.344 61.2344 121.141C60.5052 122.911 59.151 124.487 57.1719 125.867C55.1927 127.221 52.3672 128.302 48.6953 129.109C45.0234 129.891 40.2578 130.281 34.3984 130.281ZM73.4609 179.383C69.5286 179.383 65.9089 179.135 62.6016 178.641C59.2943 178.146 56.4297 177.156 54.0078 175.672C51.612 174.188 49.737 171.987 48.3828 169.07C47.0547 166.18 46.3906 162.326 46.3906 157.508V148.836C46.3906 144.826 45.5182 141.922 43.7734 140.125C42.0286 138.328 38.9036 137.43 34.3984 137.43V129.578C40.2578 129.578 45.0234 129.982 48.6953 130.789C52.3672 131.57 55.1927 132.651 57.1719 134.031C59.151 135.385 60.5052 136.961 61.2344 138.758C61.9635 140.529 62.3281 142.417 62.3281 144.422V155.828C62.3281 158.328 62.6146 160.398 63.1875 162.039C63.7604 163.706 64.8411 164.93 66.4297 165.711C68.0443 166.518 70.388 166.922 73.4609 166.922V179.383ZM34.3984 137.43V122.43H48.4219V137.43H34.3984ZM219.447 129.578V137.43C214.968 137.43 211.843 138.328 210.072 140.125C208.327 141.922 207.455 144.826 207.455 148.836V157.508C207.455 162.326 206.778 166.18 205.424 169.07C204.096 171.987 202.221 174.188 199.799 175.672C197.403 177.156 194.551 178.146 191.244 178.641C187.963 179.135 184.343 179.383 180.385 179.383V166.922C183.458 166.922 185.788 166.518 187.377 165.711C188.992 164.93 190.085 163.706 190.658 162.039C191.231 160.398 191.518 158.328 191.518 155.828V144.422C191.518 142.417 191.882 140.529 192.611 138.758C193.34 136.961 194.695 135.385 196.674 134.031C198.653 132.651 201.479 131.57 205.15 130.789C208.822 129.982 213.588 129.578 219.447 129.578ZM180.385 80.5156C184.343 80.5156 187.963 80.763 191.244 81.2578C194.551 81.7526 197.403 82.7422 199.799 84.2266C202.221 85.7109 204.096 87.9115 205.424 90.8281C206.778 93.7187 207.455 97.5729 207.455 102.391V111.023C207.455 115.034 208.327 117.937 210.072 119.734C211.843 121.531 214.968 122.43 219.447 122.43V130.281C213.588 130.281 208.822 129.891 205.15 129.109C201.479 128.302 198.653 127.221 196.674 125.867C194.695 124.487 193.34 122.911 192.611 121.141C191.882 119.344 191.518 117.456 191.518 115.477V104.07C191.518 101.544 191.231 99.4609 190.658 97.8203C190.085 96.1536 188.992 94.9297 187.377 94.1484C185.788 93.3411 183.458 92.9375 180.385 92.9375V80.5156ZM219.447 122.43V137.43H205.424V122.43H219.447Z" fill="black"/>
<path d="M96.4624 160H82.951L103.538 100.364H119.787L140.345 160H126.834L111.896 113.991H111.43L96.4624 160ZM95.6179 136.559H127.533V146.401H95.6179V136.559ZM160.132 100.364V160H147.523V100.364H160.132Z" fill="black"/>
</svg>
